<?xml version="1.0" encoding="utf-8" standalone="no"?>
<!DOCTYPE svg PUBLIC "-//W3C//DTD SVG 1.1//EN"
  "http://www.w3.org/Graphics/SVG/1.1/DTD/svg11.dtd">
<svg xmlns:xlink="http://www.w3.org/1999/xlink" width="483.503125pt" height="210.45625pt" viewBox="0 0 483.503125 210.45625" xmlns="http://www.w3.org/2000/svg" version="1.1">
 <metadata>
  <rdf:RDF xmlns:dc="http://purl.org/dc/elements/1.1/" xmlns:cc="http://creativecommons.org/ns#" xmlns:rdf="http://www.w3.org/1999/02/22-rdf-syntax-ns#">
   <cc:Work>
    <dc:type rdf:resource="http://purl.org/dc/dcmitype/StillImage"/>
    <dc:date>2023-07-18T17:33:41.210335</dc:date>
    <dc:format>image/svg+xml</dc:format>
    <dc:creator>
     <cc:Agent>
      <dc:title>Matplotlib v3.7.1, https://matplotlib.org/</dc:title>
     </cc:Agent>
    </dc:creator>
   </cc:Work>
  </rdf:RDF>
 </metadata>
 <defs>
  <style type="text/css">*{stroke-linejoin: round; stroke-linecap: butt}</style>
 </defs>
 <g id="figure_1">
  <g id="patch_1">
   <path d="M 0 210.45625 
L 483.503125 210.45625 
L 483.503125 0 
L 0 0 
z
" style="fill: #ffffff"/>
  </g>
  <g id="axes_1">
   <g id="patch_2">
    <path d="M 33.503125 180 
L 479.903125 180 
L 479.903125 3.6 
L 33.503125 3.6 
z
" style="fill: #ffffff"/>
   </g>
   <g id="matplotlib.axis_1">
    <g id="xtick_1">
     <g id="line2d_1">
      <path d="M 53.794034 180 
L 53.794034 3.6 
" clip-path="url(#p13a48c0ee2)" style="fill: none; stroke: #cccccc; stroke-linecap: square"/>
     </g>
     <g id="line2d_2">
      <defs>
       <path id="m93cea655ea" d="M 0 0 
L 0 -6 
" style="stroke: #000000"/>
      </defs>
      <g>
       <use xlink:href="#m93cea655ea" x="53.794034" y="180" style="stroke: #000000"/>
      </g>
     </g>
     <g id="line2d_3">
      <defs>
       <path id="m1051bd9925" d="M 0 0 
L 0 6 
" style="stroke: #000000"/>
      </defs>
      <g>
       <use xlink:href="#m1051bd9925" x="53.794034" y="3.6" style="stroke: #000000"/>
      </g>
     </g>
     <g id="text_1">
      <!-- 0 -->
      <g transform="translate(50.612784 191.098437) scale(0.1 -0.1)">
       <defs>
        <path id="DejaVuSans-30" d="M 2034 4250 
Q 1547 4250 1301 3770 
Q 1056 3291 1056 2328 
Q 1056 1369 1301 889 
Q 1547 409 2034 409 
Q 2525 409 2770 889 
Q 3016 1369 3016 2328 
Q 3016 3291 2770 3770 
Q 2525 4250 2034 4250 
z
M 2034 4750 
Q 2819 4750 3233 4129 
Q 3647 3509 3647 2328 
Q 3647 1150 3233 529 
Q 2819 -91 2034 -91 
Q 1250 -91 836 529 
Q 422 1150 422 2328 
Q 422 3509 836 4129 
Q 1250 4750 2034 4750 
z
" transform="scale(0.015625)"/>
       </defs>
       <use xlink:href="#DejaVuSans-30"/>
      </g>
     </g>
    </g>
    <g id="xtick_2">
     <g id="line2d_4">
      <path d="M 134.95767 180 
L 134.95767 3.6 
" clip-path="url(#p13a48c0ee2)" style="fill: none; stroke: #cccccc; stroke-linecap: square"/>
     </g>
     <g id="line2d_5">
      <g>
       <use xlink:href="#m93cea655ea" x="134.95767" y="180" style="stroke: #000000"/>
      </g>
     </g>
     <g id="line2d_6">
      <g>
       <use xlink:href="#m1051bd9925" x="134.95767" y="3.6" style="stroke: #000000"/>
      </g>
     </g>
     <g id="text_2">
      <!-- 10 -->
      <g transform="translate(128.59517 191.098437) scale(0.1 -0.1)">
       <defs>
        <path id="DejaVuSans-31" d="M 794 531 
L 1825 531 
L 1825 4091 
L 703 3866 
L 703 4441 
L 1819 4666 
L 2450 4666 
L 2450 531 
L 3481 531 
L 3481 0 
L 794 0 
L 794 531 
z
" transform="scale(0.015625)"/>
       </defs>
       <use xlink:href="#DejaVuSans-31"/>
       <use xlink:href="#DejaVuSans-30" x="63.623047"/>
      </g>
     </g>
    </g>
    <g id="xtick_3">
     <g id="line2d_7">
      <path d="M 216.121307 180 
L 216.121307 3.6 
" clip-path="url(#p13a48c0ee2)" style="fill: none; stroke: #cccccc; stroke-linecap: square"/>
     </g>
     <g id="line2d_8">
      <g>
       <use xlink:href="#m93cea655ea" x="216.121307" y="180" style="stroke: #000000"/>
      </g>
     </g>
     <g id="line2d_9">
      <g>
       <use xlink:href="#m1051bd9925" x="216.121307" y="3.6" style="stroke: #000000"/>
      </g>
     </g>
     <g id="text_3">
      <!-- 20 -->
      <g transform="translate(209.758807 191.098437) scale(0.1 -0.1)">
       <defs>
        <path id="DejaVuSans-32" d="M 1228 531 
L 3431 531 
L 3431 0 
L 469 0 
L 469 531 
Q 828 903 1448 1529 
Q 2069 2156 2228 2338 
Q 2531 2678 2651 2914 
Q 2772 3150 2772 3378 
Q 2772 3750 2511 3984 
Q 2250 4219 1831 4219 
Q 1534 4219 1204 4116 
Q 875 4013 500 3803 
L 500 4441 
Q 881 4594 1212 4672 
Q 1544 4750 1819 4750 
Q 2544 4750 2975 4387 
Q 3406 4025 3406 3419 
Q 3406 3131 3298 2873 
Q 3191 2616 2906 2266 
Q 2828 2175 2409 1742 
Q 1991 1309 1228 531 
z
" transform="scale(0.015625)"/>
       </defs>
       <use xlink:href="#DejaVuSans-32"/>
       <use xlink:href="#DejaVuSans-30" x="63.623047"/>
      </g>
     </g>
    </g>
    <g id="xtick_4">
     <g id="line2d_10">
      <path d="M 297.284943 180 
L 297.284943 3.6 
" clip-path="url(#p13a48c0ee2)" style="fill: none; stroke: #cccccc; stroke-linecap: square"/>
     </g>
     <g id="line2d_11">
      <g>
       <use xlink:href="#m93cea655ea" x="297.284943" y="180" style="stroke: #000000"/>
      </g>
     </g>
     <g id="line2d_12">
      <g>
       <use xlink:href="#m1051bd9925" x="297.284943" y="3.6" style="stroke: #000000"/>
      </g>
     </g>
     <g id="text_4">
      <!-- 30 -->
      <g transform="translate(290.922443 191.098437) scale(0.1 -0.1)">
       <defs>
        <path id="DejaVuSans-33" d="M 2597 2516 
Q 3050 2419 3304 2112 
Q 3559 1806 3559 1356 
Q 3559 666 3084 287 
Q 2609 -91 1734 -91 
Q 1441 -91 1130 -33 
Q 819 25 488 141 
L 488 750 
Q 750 597 1062 519 
Q 1375 441 1716 441 
Q 2309 441 2620 675 
Q 2931 909 2931 1356 
Q 2931 1769 2642 2001 
Q 2353 2234 1838 2234 
L 1294 2234 
L 1294 2753 
L 1863 2753 
Q 2328 2753 2575 2939 
Q 2822 3125 2822 3475 
Q 2822 3834 2567 4026 
Q 2313 4219 1838 4219 
Q 1578 4219 1281 4162 
Q 984 4106 628 3988 
L 628 4550 
Q 988 4650 1302 4700 
Q 1616 4750 1894 4750 
Q 2613 4750 3031 4423 
Q 3450 4097 3450 3541 
Q 3450 3153 3228 2886 
Q 3006 2619 2597 2516 
z
" transform="scale(0.015625)"/>
       </defs>
       <use xlink:href="#DejaVuSans-33"/>
       <use xlink:href="#DejaVuSans-30" x="63.623047"/>
      </g>
     </g>
    </g>
    <g id="xtick_5">
     <g id="line2d_13">
      <path d="M 378.44858 180 
L 378.44858 3.6 
" clip-path="url(#p13a48c0ee2)" style="fill: none; stroke: #cccccc; stroke-linecap: square"/>
     </g>
     <g id="line2d_14">
      <g>
       <use xlink:href="#m93cea655ea" x="378.44858" y="180" style="stroke: #000000"/>
      </g>
     </g>
     <g id="line2d_15">
      <g>
       <use xlink:href="#m1051bd9925" x="378.44858" y="3.6" style="stroke: #000000"/>
      </g>
     </g>
     <g id="text_5">
      <!-- 40 -->
      <g transform="translate(372.08608 191.098437) scale(0.1 -0.1)">
       <defs>
        <path id="DejaVuSans-34" d="M 2419 4116 
L 825 1625 
L 2419 1625 
L 2419 4116 
z
M 2253 4666 
L 3047 4666 
L 3047 1625 
L 3713 1625 
L 3713 1100 
L 3047 1100 
L 3047 0 
L 2419 0 
L 2419 1100 
L 313 1100 
L 313 1709 
L 2253 4666 
z
" transform="scale(0.015625)"/>
       </defs>
       <use xlink:href="#DejaVuSans-34"/>
       <use xlink:href="#DejaVuSans-30" x="63.623047"/>
      </g>
     </g>
    </g>
    <g id="xtick_6">
     <g id="line2d_16">
      <path d="M 459.612216 180 
L 459.612216 3.6 
" clip-path="url(#p13a48c0ee2)" style="fill: none; stroke: #cccccc; stroke-linecap: square"/>
     </g>
     <g id="line2d_17">
      <g>
       <use xlink:href="#m93cea655ea" x="459.612216" y="180" style="stroke: #000000"/>
      </g>
     </g>
     <g id="line2d_18">
      <g>
       <use xlink:href="#m1051bd9925" x="459.612216" y="3.6" style="stroke: #000000"/>
      </g>
     </g>
     <g id="text_6">
      <!-- 50 -->
      <g transform="translate(453.249716 191.098437) scale(0.1 -0.1)">
       <defs>
        <path id="DejaVuSans-35" d="M 691 4666 
L 3169 4666 
L 3169 4134 
L 1269 4134 
L 1269 2991 
Q 1406 3038 1543 3061 
Q 1681 3084 1819 3084 
Q 2600 3084 3056 2656 
Q 3513 2228 3513 1497 
Q 3513 744 3044 326 
Q 2575 -91 1722 -91 
Q 1428 -91 1123 -41 
Q 819 9 494 109 
L 494 744 
Q 775 591 1075 516 
Q 1375 441 1709 441 
Q 2250 441 2565 725 
Q 2881 1009 2881 1497 
Q 2881 1984 2565 2268 
Q 2250 2553 1709 2553 
Q 1456 2553 1204 2497 
Q 953 2441 691 2322 
L 691 4666 
z
" transform="scale(0.015625)"/>
       </defs>
       <use xlink:href="#DejaVuSans-35"/>
       <use xlink:href="#DejaVuSans-30" x="63.623047"/>
      </g>
     </g>
    </g>
    <g id="xtick_7">
     <g id="line2d_19">
      <path d="M 37.561307 180 
L 37.561307 3.6 
" clip-path="url(#p13a48c0ee2)" style="fill: none; stroke-dasharray: 1,1.65; stroke-dashoffset: 0; stroke: #cccccc; stroke-opacity: 0.5"/>
     </g>
     <g id="line2d_20">
      <defs>
       <path id="m5b9936ee69" d="M 0 0 
L 0 -3 
" style="stroke: #000000"/>
      </defs>
      <g>
       <use xlink:href="#m5b9936ee69" x="37.561307" y="180" style="stroke: #000000"/>
      </g>
     </g>
     <g id="line2d_21">
      <defs>
       <path id="m60c76061c0" d="M 0 0 
L 0 3 
" style="stroke: #000000"/>
      </defs>
      <g>
       <use xlink:href="#m60c76061c0" x="37.561307" y="3.6" style="stroke: #000000"/>
      </g>
     </g>
    </g>
    <g id="xtick_8">
     <g id="line2d_22">
      <path d="M 70.026761 180 
L 70.026761 3.6 
" clip-path="url(#p13a48c0ee2)" style="fill: none; stroke-dasharray: 1,1.65; stroke-dashoffset: 0; stroke: #cccccc; stroke-opacity: 0.5"/>
     </g>
     <g id="line2d_23">
      <g>
       <use xlink:href="#m5b9936ee69" x="70.026761" y="180" style="stroke: #000000"/>
      </g>
     </g>
     <g id="line2d_24">
      <g>
       <use xlink:href="#m60c76061c0" x="70.026761" y="3.6" style="stroke: #000000"/>
      </g>
     </g>
    </g>
    <g id="xtick_9">
     <g id="line2d_25">
      <path d="M 86.259489 180 
L 86.259489 3.6 
" clip-path="url(#p13a48c0ee2)" style="fill: none; stroke-dasharray: 1,1.65; stroke-dashoffset: 0; stroke: #cccccc; stroke-opacity: 0.5"/>
     </g>
     <g id="line2d_26">
      <g>
       <use xlink:href="#m5b9936ee69" x="86.259489" y="180" style="stroke: #000000"/>
      </g>
     </g>
     <g id="line2d_27">
      <g>
       <use xlink:href="#m60c76061c0" x="86.259489" y="3.6" style="stroke: #000000"/>
      </g>
     </g>
    </g>
    <g id="xtick_10">
     <g id="line2d_28">
      <path d="M 102.492216 180 
L 102.492216 3.6 
" clip-path="url(#p13a48c0ee2)" style="fill: none; stroke-dasharray: 1,1.65; stroke-dashoffset: 0; stroke: #cccccc; stroke-opacity: 0.5"/>
     </g>
     <g id="line2d_29">
      <g>
       <use xlink:href="#m5b9936ee69" x="102.492216" y="180" style="stroke: #000000"/>
      </g>
     </g>
     <g id="line2d_30">
      <g>
       <use xlink:href="#m60c76061c0" x="102.492216" y="3.6" style="stroke: #000000"/>
      </g>
     </g>
    </g>
    <g id="xtick_11">
     <g id="line2d_31">
      <path d="M 118.724943 180 
L 118.724943 3.6 
" clip-path="url(#p13a48c0ee2)" style="fill: none; stroke-dasharray: 1,1.65; stroke-dashoffset: 0; stroke: #cccccc; stroke-opacity: 0.5"/>
     </g>
     <g id="line2d_32">
      <g>
       <use xlink:href="#m5b9936ee69" x="118.724943" y="180" style="stroke: #000000"/>
      </g>
     </g>
     <g id="line2d_33">
      <g>
       <use xlink:href="#m60c76061c0" x="118.724943" y="3.6" style="stroke: #000000"/>
      </g>
     </g>
    </g>
    <g id="xtick_12">
     <g id="line2d_34">
      <path d="M 151.190398 180 
L 151.190398 3.6 
" clip-path="url(#p13a48c0ee2)" style="fill: none; stroke-dasharray: 1,1.65; stroke-dashoffset: 0; stroke: #cccccc; stroke-opacity: 0.5"/>
     </g>
     <g id="line2d_35">
      <g>
       <use xlink:href="#m5b9936ee69" x="151.190398" y="180" style="stroke: #000000"/>
      </g>
     </g>
     <g id="line2d_36">
      <g>
       <use xlink:href="#m60c76061c0" x="151.190398" y="3.6" style="stroke: #000000"/>
      </g>
     </g>
    </g>
    <g id="xtick_13">
     <g id="line2d_37">
      <path d="M 167.423125 180 
L 167.423125 3.6 
" clip-path="url(#p13a48c0ee2)" style="fill: none; stroke-dasharray: 1,1.65; stroke-dashoffset: 0; stroke: #cccccc; stroke-opacity: 0.5"/>
     </g>
     <g id="line2d_38">
      <g>
       <use xlink:href="#m5b9936ee69" x="167.423125" y="180" style="stroke: #000000"/>
      </g>
     </g>
     <g id="line2d_39">
      <g>
       <use xlink:href="#m60c76061c0" x="167.423125" y="3.6" style="stroke: #000000"/>
      </g>
     </g>
    </g>
    <g id="xtick_14">
     <g id="line2d_40">
      <path d="M 183.655852 180 
L 183.655852 3.6 
" clip-path="url(#p13a48c0ee2)" style="fill: none; stroke-dasharray: 1,1.65; stroke-dashoffset: 0; stroke: #cccccc; stroke-opacity: 0.5"/>
     </g>
     <g id="line2d_41">
      <g>
       <use xlink:href="#m5b9936ee69" x="183.655852" y="180" style="stroke: #000000"/>
      </g>
     </g>
     <g id="line2d_42">
      <g>
       <use xlink:href="#m60c76061c0" x="183.655852" y="3.6" style="stroke: #000000"/>
      </g>
     </g>
    </g>
    <g id="xtick_15">
     <g id="line2d_43">
      <path d="M 199.88858 180 
L 199.88858 3.6 
" clip-path="url(#p13a48c0ee2)" style="fill: none; stroke-dasharray: 1,1.65; stroke-dashoffset: 0; stroke: #cccccc; stroke-opacity: 0.5"/>
     </g>
     <g id="line2d_44">
      <g>
       <use xlink:href="#m5b9936ee69" x="199.88858" y="180" style="stroke: #000000"/>
      </g>
     </g>
     <g id="line2d_45">
      <g>
       <use xlink:href="#m60c76061c0" x="199.88858" y="3.6" style="stroke: #000000"/>
      </g>
     </g>
    </g>
    <g id="xtick_16">
     <g id="line2d_46">
      <path d="M 232.354034 180 
L 232.354034 3.6 
" clip-path="url(#p13a48c0ee2)" style="fill: none; stroke-dasharray: 1,1.65; stroke-dashoffset: 0; stroke: #cccccc; stroke-opacity: 0.5"/>
     </g>
     <g id="line2d_47">
      <g>
       <use xlink:href="#m5b9936ee69" x="232.354034" y="180" style="stroke: #000000"/>
      </g>
     </g>
     <g id="line2d_48">
      <g>
       <use xlink:href="#m60c76061c0" x="232.354034" y="3.6" style="stroke: #000000"/>
      </g>
     </g>
    </g>
    <g id="xtick_17">
     <g id="line2d_49">
      <path d="M 248.586761 180 
L 248.586761 3.6 
" clip-path="url(#p13a48c0ee2)" style="fill: none; stroke-dasharray: 1,1.65; stroke-dashoffset: 0; stroke: #cccccc; stroke-opacity: 0.5"/>
     </g>
     <g id="line2d_50">
      <g>
       <use xlink:href="#m5b9936ee69" x="248.586761" y="180" style="stroke: #000000"/>
      </g>
     </g>
     <g id="line2d_51">
      <g>
       <use xlink:href="#m60c76061c0" x="248.586761" y="3.6" style="stroke: #000000"/>
      </g>
     </g>
    </g>
    <g id="xtick_18">
     <g id="line2d_52">
      <path d="M 264.819489 180 
L 264.819489 3.6 
" clip-path="url(#p13a48c0ee2)" style="fill: none; stroke-dasharray: 1,1.65; stroke-dashoffset: 0; stroke: #cccccc; stroke-opacity: 0.5"/>
     </g>
     <g id="line2d_53">
      <g>
       <use xlink:href="#m5b9936ee69" x="264.819489" y="180" style="stroke: #000000"/>
      </g>
     </g>
     <g id="line2d_54">
      <g>
       <use xlink:href="#m60c76061c0" x="264.819489" y="3.6" style="stroke: #000000"/>
      </g>
     </g>
    </g>
    <g id="xtick_19">
     <g id="line2d_55">
      <path d="M 281.052216 180 
L 281.052216 3.6 
" clip-path="url(#p13a48c0ee2)" style="fill: none; stroke-dasharray: 1,1.65; stroke-dashoffset: 0; stroke: #cccccc; stroke-opacity: 0.5"/>
     </g>
     <g id="line2d_56">
      <g>
       <use xlink:href="#m5b9936ee69" x="281.052216" y="180" style="stroke: #000000"/>
      </g>
     </g>
     <g id="line2d_57">
      <g>
       <use xlink:href="#m60c76061c0" x="281.052216" y="3.6" style="stroke: #000000"/>
      </g>
     </g>
    </g>
    <g id="xtick_20">
     <g id="line2d_58">
      <path d="M 313.51767 180 
L 313.51767 3.6 
" clip-path="url(#p13a48c0ee2)" style="fill: none; stroke-dasharray: 1,1.65; stroke-dashoffset: 0; stroke: #cccccc; stroke-opacity: 0.5"/>
     </g>
     <g id="line2d_59">
      <g>
       <use xlink:href="#m5b9936ee69" x="313.51767" y="180" style="stroke: #000000"/>
      </g>
     </g>
     <g id="line2d_60">
      <g>
       <use xlink:href="#m60c76061c0" x="313.51767" y="3.6" style="stroke: #000000"/>
      </g>
     </g>
    </g>
    <g id="xtick_21">
     <g id="line2d_61">
      <path d="M 329.750398 180 
L 329.750398 3.6 
" clip-path="url(#p13a48c0ee2)" style="fill: none; stroke-dasharray: 1,1.65; stroke-dashoffset: 0; stroke: #cccccc; stroke-opacity: 0.5"/>
     </g>
     <g id="line2d_62">
      <g>
       <use xlink:href="#m5b9936ee69" x="329.750398" y="180" style="stroke: #000000"/>
      </g>
     </g>
     <g id="line2d_63">
      <g>
       <use xlink:href="#m60c76061c0" x="329.750398" y="3.6" style="stroke: #000000"/>
      </g>
     </g>
    </g>
    <g id="xtick_22">
     <g id="line2d_64">
      <path d="M 345.983125 180 
L 345.983125 3.6 
" clip-path="url(#p13a48c0ee2)" style="fill: none; stroke-dasharray: 1,1.65; stroke-dashoffset: 0; stroke: #cccccc; stroke-opacity: 0.5"/>
     </g>
     <g id="line2d_65">
      <g>
       <use xlink:href="#m5b9936ee69" x="345.983125" y="180" style="stroke: #000000"/>
      </g>
     </g>
     <g id="line2d_66">
      <g>
       <use xlink:href="#m60c76061c0" x="345.983125" y="3.6" style="stroke: #000000"/>
      </g>
     </g>
    </g>
    <g id="xtick_23">
     <g id="line2d_67">
      <path d="M 362.215852 180 
L 362.215852 3.6 
" clip-path="url(#p13a48c0ee2)" style="fill: none; stroke-dasharray: 1,1.65; stroke-dashoffset: 0; stroke: #cccccc; stroke-opacity: 0.5"/>
     </g>
     <g id="line2d_68">
      <g>
       <use xlink:href="#m5b9936ee69" x="362.215852" y="180" style="stroke: #000000"/>
      </g>
     </g>
     <g id="line2d_69">
      <g>
       <use xlink:href="#m60c76061c0" x="362.215852" y="3.6" style="stroke: #000000"/>
      </g>
     </g>
    </g>
    <g id="xtick_24">
     <g id="line2d_70">
      <path d="M 394.681307 180 
L 394.681307 3.6 
" clip-path="url(#p13a48c0ee2)" style="fill: none; stroke-dasharray: 1,1.65; stroke-dashoffset: 0; stroke: #cccccc; stroke-opacity: 0.5"/>
     </g>
     <g id="line2d_71">
      <g>
       <use xlink:href="#m5b9936ee69" x="394.681307" y="180" style="stroke: #000000"/>
      </g>
     </g>
     <g id="line2d_72">
      <g>
       <use xlink:href="#m60c76061c0" x="394.681307" y="3.6" style="stroke: #000000"/>
      </g>
     </g>
    </g>
    <g id="xtick_25">
     <g id="line2d_73">
      <path d="M 410.914034 180 
L 410.914034 3.6 
" clip-path="url(#p13a48c0ee2)" style="fill: none; stroke-dasharray: 1,1.65; stroke-dashoffset: 0; stroke: #cccccc; stroke-opacity: 0.5"/>
     </g>
     <g id="line2d_74">
      <g>
       <use xlink:href="#m5b9936ee69" x="410.914034" y="180" style="stroke: #000000"/>
      </g>
     </g>
     <g id="line2d_75">
      <g>
       <use xlink:href="#m60c76061c0" x="410.914034" y="3.6" style="stroke: #000000"/>
      </g>
     </g>
    </g>
    <g id="xtick_26">
     <g id="line2d_76">
      <path d="M 427.146761 180 
L 427.146761 3.6 
" clip-path="url(#p13a48c0ee2)" style="fill: none; stroke-dasharray: 1,1.65; stroke-dashoffset: 0; stroke: #cccccc; stroke-opacity: 0.5"/>
     </g>
     <g id="line2d_77">
      <g>
       <use xlink:href="#m5b9936ee69" x="427.146761" y="180" style="stroke: #000000"/>
      </g>
     </g>
     <g id="line2d_78">
      <g>
       <use xlink:href="#m60c76061c0" x="427.146761" y="3.6" style="stroke: #000000"/>
      </g>
     </g>
    </g>
    <g id="xtick_27">
     <g id="line2d_79">
      <path d="M 443.379489 180 
L 443.379489 3.6 
" clip-path="url(#p13a48c0ee2)" style="fill: none; stroke-dasharray: 1,1.65; stroke-dashoffset: 0; stroke: #cccccc; stroke-opacity: 0.5"/>
     </g>
     <g id="line2d_80">
      <g>
       <use xlink:href="#m5b9936ee69" x="443.379489" y="180" style="stroke: #000000"/>
      </g>
     </g>
     <g id="line2d_81">
      <g>
       <use xlink:href="#m60c76061c0" x="443.379489" y="3.6" style="stroke: #000000"/>
      </g>
     </g>
    </g>
    <g id="xtick_28">
     <g id="line2d_82">
      <path d="M 475.844943 180 
L 475.844943 3.6 
" clip-path="url(#p13a48c0ee2)" style="fill: none; stroke-dasharray: 1,1.65; stroke-dashoffset: 0; stroke: #cccccc; stroke-opacity: 0.5"/>
     </g>
     <g id="line2d_83">
      <g>
       <use xlink:href="#m5b9936ee69" x="475.844943" y="180" style="stroke: #000000"/>
      </g>
     </g>
     <g id="line2d_84">
      <g>
       <use xlink:href="#m60c76061c0" x="475.844943" y="3.6" style="stroke: #000000"/>
      </g>
     </g>
    </g>
    <g id="text_7">
     <!-- Ensaios -->
     <g transform="translate(237.653125 204.776562) scale(0.1 -0.1)">
      <defs>
       <path id="DejaVuSans-45" d="M 628 4666 
L 3578 4666 
L 3578 4134 
L 1259 4134 
L 1259 2753 
L 3481 2753 
L 3481 2222 
L 1259 2222 
L 1259 531 
L 3634 531 
L 3634 0 
L 628 0 
L 628 4666 
z
" transform="scale(0.015625)"/>
       <path id="DejaVuSans-6e" d="M 3513 2113 
L 3513 0 
L 2938 0 
L 2938 2094 
Q 2938 2591 2744 2837 
Q 2550 3084 2163 3084 
Q 1697 3084 1428 2787 
Q 1159 2491 1159 1978 
L 1159 0 
L 581 0 
L 581 3500 
L 1159 3500 
L 1159 2956 
Q 1366 3272 1645 3428 
Q 1925 3584 2291 3584 
Q 2894 3584 3203 3211 
Q 3513 2838 3513 2113 
z
" transform="scale(0.015625)"/>
       <path id="DejaVuSans-73" d="M 2834 3397 
L 2834 2853 
Q 2591 2978 2328 3040 
Q 2066 3103 1784 3103 
Q 1356 3103 1142 2972 
Q 928 2841 928 2578 
Q 928 2378 1081 2264 
Q 1234 2150 1697 2047 
L 1894 2003 
Q 2506 1872 2764 1633 
Q 3022 1394 3022 966 
Q 3022 478 2636 193 
Q 2250 -91 1575 -91 
Q 1294 -91 989 -36 
Q 684 19 347 128 
L 347 722 
Q 666 556 975 473 
Q 1284 391 1588 391 
Q 1994 391 2212 530 
Q 2431 669 2431 922 
Q 2431 1156 2273 1281 
Q 2116 1406 1581 1522 
L 1381 1569 
Q 847 1681 609 1914 
Q 372 2147 372 2553 
Q 372 3047 722 3315 
Q 1072 3584 1716 3584 
Q 2034 3584 2315 3537 
Q 2597 3491 2834 3397 
z
" transform="scale(0.015625)"/>
       <path id="DejaVuSans-61" d="M 2194 1759 
Q 1497 1759 1228 1600 
Q 959 1441 959 1056 
Q 959 750 1161 570 
Q 1363 391 1709 391 
Q 2188 391 2477 730 
Q 2766 1069 2766 1631 
L 2766 1759 
L 2194 1759 
z
M 3341 1997 
L 3341 0 
L 2766 0 
L 2766 531 
Q 2569 213 2275 61 
Q 1981 -91 1556 -91 
Q 1019 -91 701 211 
Q 384 513 384 1019 
Q 384 1609 779 1909 
Q 1175 2209 1959 2209 
L 2766 2209 
L 2766 2266 
Q 2766 2663 2505 2880 
Q 2244 3097 1772 3097 
Q 1472 3097 1187 3025 
Q 903 2953 641 2809 
L 641 3341 
Q 956 3463 1253 3523 
Q 1550 3584 1831 3584 
Q 2591 3584 2966 3190 
Q 3341 2797 3341 1997 
z
" transform="scale(0.015625)"/>
       <path id="DejaVuSans-69" d="M 603 3500 
L 1178 3500 
L 1178 0 
L 603 0 
L 603 3500 
z
M 603 4863 
L 1178 4863 
L 1178 4134 
L 603 4134 
L 603 4863 
z
" transform="scale(0.015625)"/>
       <path id="DejaVuSans-6f" d="M 1959 3097 
Q 1497 3097 1228 2736 
Q 959 2375 959 1747 
Q 959 1119 1226 758 
Q 1494 397 1959 397 
Q 2419 397 2687 759 
Q 2956 1122 2956 1747 
Q 2956 2369 2687 2733 
Q 2419 3097 1959 3097 
z
M 1959 3584 
Q 2709 3584 3137 3096 
Q 3566 2609 3566 1747 
Q 3566 888 3137 398 
Q 2709 -91 1959 -91 
Q 1206 -91 779 398 
Q 353 888 353 1747 
Q 353 2609 779 3096 
Q 1206 3584 1959 3584 
z
" transform="scale(0.015625)"/>
      </defs>
      <use xlink:href="#DejaVuSans-45"/>
      <use xlink:href="#DejaVuSans-6e" x="63.183594"/>
      <use xlink:href="#DejaVuSans-73" x="126.5625"/>
      <use xlink:href="#DejaVuSans-61" x="178.662109"/>
      <use xlink:href="#DejaVuSans-69" x="239.941406"/>
      <use xlink:href="#DejaVuSans-6f" x="267.724609"/>
      <use xlink:href="#DejaVuSans-73" x="328.90625"/>
     </g>
    </g>
   </g>
   <g id="matplotlib.axis_2">
    <g id="ytick_1">
     <g id="line2d_85">
      <path d="M 33.503125 153.478322 
L 479.903125 153.478322 
" clip-path="url(#p13a48c0ee2)" style="fill: none; stroke: #cccccc; stroke-linecap: square"/>
     </g>
     <g id="line2d_86">
      <defs>
       <path id="m5bba33b839" d="M 0 0 
L 6 0 
" style="stroke: #000000"/>
      </defs>
      <g>
       <use xlink:href="#m5bba33b839" x="33.503125" y="153.478322" style="stroke: #000000"/>
      </g>
     </g>
     <g id="line2d_87">
      <defs>
       <path id="mcb8ad404c2" d="M 0 0 
L -6 0 
" style="stroke: #000000"/>
      </defs>
      <g>
       <use xlink:href="#mcb8ad404c2" x="479.903125" y="153.478322" style="stroke: #000000"/>
      </g>
     </g>
     <g id="text_8">
      <!-- 5 -->
      <g transform="translate(23.640625 157.27754) scale(0.1 -0.1)">
       <use xlink:href="#DejaVuSans-35"/>
      </g>
     </g>
    </g>
    <g id="ytick_2">
     <g id="line2d_88">
      <path d="M 33.503125 122.639161 
L 479.903125 122.639161 
" clip-path="url(#p13a48c0ee2)" style="fill: none; stroke: #cccccc; stroke-linecap: square"/>
     </g>
     <g id="line2d_89">
      <g>
       <use xlink:href="#m5bba33b839" x="33.503125" y="122.639161" style="stroke: #000000"/>
      </g>
     </g>
     <g id="line2d_90">
      <g>
       <use xlink:href="#mcb8ad404c2" x="479.903125" y="122.639161" style="stroke: #000000"/>
      </g>
     </g>
     <g id="text_9">
      <!-- 10 -->
      <g transform="translate(17.278125 126.43838) scale(0.1 -0.1)">
       <use xlink:href="#DejaVuSans-31"/>
       <use xlink:href="#DejaVuSans-30" x="63.623047"/>
      </g>
     </g>
    </g>
    <g id="ytick_3">
     <g id="line2d_91">
      <path d="M 33.503125 91.8 
L 479.903125 91.8 
" clip-path="url(#p13a48c0ee2)" style="fill: none; stroke: #cccccc; stroke-linecap: square"/>
     </g>
     <g id="line2d_92">
      <g>
       <use xlink:href="#m5bba33b839" x="33.503125" y="91.8" style="stroke: #000000"/>
      </g>
     </g>
     <g id="line2d_93">
      <g>
       <use xlink:href="#mcb8ad404c2" x="479.903125" y="91.8" style="stroke: #000000"/>
      </g>
     </g>
     <g id="text_10">
      <!-- 15 -->
      <g transform="translate(17.278125 95.599219) scale(0.1 -0.1)">
       <use xlink:href="#DejaVuSans-31"/>
       <use xlink:href="#DejaVuSans-35" x="63.623047"/>
      </g>
     </g>
    </g>
    <g id="ytick_4">
     <g id="line2d_94">
      <path d="M 33.503125 60.960839 
L 479.903125 60.960839 
" clip-path="url(#p13a48c0ee2)" style="fill: none; stroke: #cccccc; stroke-linecap: square"/>
     </g>
     <g id="line2d_95">
      <g>
       <use xlink:href="#m5bba33b839" x="33.503125" y="60.960839" style="stroke: #000000"/>
      </g>
     </g>
     <g id="line2d_96">
      <g>
       <use xlink:href="#mcb8ad404c2" x="479.903125" y="60.960839" style="stroke: #000000"/>
      </g>
     </g>
     <g id="text_11">
      <!-- 20 -->
      <g transform="translate(17.278125 64.760058) scale(0.1 -0.1)">
       <use xlink:href="#DejaVuSans-32"/>
       <use xlink:href="#DejaVuSans-30" x="63.623047"/>
      </g>
     </g>
    </g>
    <g id="ytick_5">
     <g id="line2d_97">
      <path d="M 33.503125 30.121678 
L 479.903125 30.121678 
" clip-path="url(#p13a48c0ee2)" style="fill: none; stroke: #cccccc; stroke-linecap: square"/>
     </g>
     <g id="line2d_98">
      <g>
       <use xlink:href="#m5bba33b839" x="33.503125" y="30.121678" style="stroke: #000000"/>
      </g>
     </g>
     <g id="line2d_99">
      <g>
       <use xlink:href="#mcb8ad404c2" x="479.903125" y="30.121678" style="stroke: #000000"/>
      </g>
     </g>
     <g id="text_12">
      <!-- 25 -->
      <g transform="translate(17.278125 33.920897) scale(0.1 -0.1)">
       <use xlink:href="#DejaVuSans-32"/>
       <use xlink:href="#DejaVuSans-35" x="63.623047"/>
      </g>
     </g>
    </g>
    <g id="ytick_6">
     <g id="line2d_100">
      <path d="M 33.503125 178.14965 
L 479.903125 178.14965 
" clip-path="url(#p13a48c0ee2)" style="fill: none; stroke-dasharray: 1,1.65; stroke-dashoffset: 0; stroke: #cccccc; stroke-opacity: 0.5"/>
     </g>
     <g id="line2d_101">
      <defs>
       <path id="m39750568ce" d="M 0 0 
L 3 0 
" style="stroke: #000000"/>
      </defs>
      <g>
       <use xlink:href="#m39750568ce" x="33.503125" y="178.14965" style="stroke: #000000"/>
      </g>
     </g>
     <g id="line2d_102">
      <defs>
       <path id="m754f5fedc5" d="M 0 0 
L -3 0 
" style="stroke: #000000"/>
      </defs>
      <g>
       <use xlink:href="#m754f5fedc5" x="479.903125" y="178.14965" style="stroke: #000000"/>
      </g>
     </g>
    </g>
    <g id="ytick_7">
     <g id="line2d_103">
      <path d="M 33.503125 171.981818 
L 479.903125 171.981818 
" clip-path="url(#p13a48c0ee2)" style="fill: none; stroke-dasharray: 1,1.65; stroke-dashoffset: 0; stroke: #cccccc; stroke-opacity: 0.5"/>
     </g>
     <g id="line2d_104">
      <g>
       <use xlink:href="#m39750568ce" x="33.503125" y="171.981818" style="stroke: #000000"/>
      </g>
     </g>
     <g id="line2d_105">
      <g>
       <use xlink:href="#m754f5fedc5" x="479.903125" y="171.981818" style="stroke: #000000"/>
      </g>
     </g>
    </g>
    <g id="ytick_8">
     <g id="line2d_106">
      <path d="M 33.503125 165.813986 
L 479.903125 165.813986 
" clip-path="url(#p13a48c0ee2)" style="fill: none; stroke-dasharray: 1,1.65; stroke-dashoffset: 0; stroke: #cccccc; stroke-opacity: 0.5"/>
     </g>
     <g id="line2d_107">
      <g>
       <use xlink:href="#m39750568ce" x="33.503125" y="165.813986" style="stroke: #000000"/>
      </g>
     </g>
     <g id="line2d_108">
      <g>
       <use xlink:href="#m754f5fedc5" x="479.903125" y="165.813986" style="stroke: #000000"/>
      </g>
     </g>
    </g>
    <g id="ytick_9">
     <g id="line2d_109">
      <path d="M 33.503125 159.646154 
L 479.903125 159.646154 
" clip-path="url(#p13a48c0ee2)" style="fill: none; stroke-dasharray: 1,1.65; stroke-dashoffset: 0; stroke: #cccccc; stroke-opacity: 0.5"/>
     </g>
     <g id="line2d_110">
      <g>
       <use xlink:href="#m39750568ce" x="33.503125" y="159.646154" style="stroke: #000000"/>
      </g>
     </g>
     <g id="line2d_111">
      <g>
       <use xlink:href="#m754f5fedc5" x="479.903125" y="159.646154" style="stroke: #000000"/>
      </g>
     </g>
    </g>
    <g id="ytick_10">
     <g id="line2d_112">
      <path d="M 33.503125 147.31049 
L 479.903125 147.31049 
" clip-path="url(#p13a48c0ee2)" style="fill: none; stroke-dasharray: 1,1.65; stroke-dashoffset: 0; stroke: #cccccc; stroke-opacity: 0.5"/>
     </g>
     <g id="line2d_113">
      <g>
       <use xlink:href="#m39750568ce" x="33.503125" y="147.31049" style="stroke: #000000"/>
      </g>
     </g>
     <g id="line2d_114">
      <g>
       <use xlink:href="#m754f5fedc5" x="479.903125" y="147.31049" style="stroke: #000000"/>
      </g>
     </g>
    </g>
    <g id="ytick_11">
     <g id="line2d_115">
      <path d="M 33.503125 141.142657 
L 479.903125 141.142657 
" clip-path="url(#p13a48c0ee2)" style="fill: none; stroke-dasharray: 1,1.65; stroke-dashoffset: 0; stroke: #cccccc; stroke-opacity: 0.5"/>
     </g>
     <g id="line2d_116">
      <g>
       <use xlink:href="#m39750568ce" x="33.503125" y="141.142657" style="stroke: #000000"/>
      </g>
     </g>
     <g id="line2d_117">
      <g>
       <use xlink:href="#m754f5fedc5" x="479.903125" y="141.142657" style="stroke: #000000"/>
      </g>
     </g>
    </g>
    <g id="ytick_12">
     <g id="line2d_118">
      <path d="M 33.503125 134.974825 
L 479.903125 134.974825 
" clip-path="url(#p13a48c0ee2)" style="fill: none; stroke-dasharray: 1,1.65; stroke-dashoffset: 0; stroke: #cccccc; stroke-opacity: 0.5"/>
     </g>
     <g id="line2d_119">
      <g>
       <use xlink:href="#m39750568ce" x="33.503125" y="134.974825" style="stroke: #000000"/>
      </g>
     </g>
     <g id="line2d_120">
      <g>
       <use xlink:href="#m754f5fedc5" x="479.903125" y="134.974825" style="stroke: #000000"/>
      </g>
     </g>
    </g>
    <g id="ytick_13">
     <g id="line2d_121">
      <path d="M 33.503125 128.806993 
L 479.903125 128.806993 
" clip-path="url(#p13a48c0ee2)" style="fill: none; stroke-dasharray: 1,1.65; stroke-dashoffset: 0; stroke: #cccccc; stroke-opacity: 0.5"/>
     </g>
     <g id="line2d_122">
      <g>
       <use xlink:href="#m39750568ce" x="33.503125" y="128.806993" style="stroke: #000000"/>
      </g>
     </g>
     <g id="line2d_123">
      <g>
       <use xlink:href="#m754f5fedc5" x="479.903125" y="128.806993" style="stroke: #000000"/>
      </g>
     </g>
    </g>
    <g id="ytick_14">
     <g id="line2d_124">
      <path d="M 33.503125 116.471329 
L 479.903125 116.471329 
" clip-path="url(#p13a48c0ee2)" style="fill: none; stroke-dasharray: 1,1.65; stroke-dashoffset: 0; stroke: #cccccc; stroke-opacity: 0.5"/>
     </g>
     <g id="line2d_125">
      <g>
       <use xlink:href="#m39750568ce" x="33.503125" y="116.471329" style="stroke: #000000"/>
      </g>
     </g>
     <g id="line2d_126">
      <g>
       <use xlink:href="#m754f5fedc5" x="479.903125" y="116.471329" style="stroke: #000000"/>
      </g>
     </g>
    </g>
    <g id="ytick_15">
     <g id="line2d_127">
      <path d="M 33.503125 110.303497 
L 479.903125 110.303497 
" clip-path="url(#p13a48c0ee2)" style="fill: none; stroke-dasharray: 1,1.65; stroke-dashoffset: 0; stroke: #cccccc; stroke-opacity: 0.5"/>
     </g>
     <g id="line2d_128">
      <g>
       <use xlink:href="#m39750568ce" x="33.503125" y="110.303497" style="stroke: #000000"/>
      </g>
     </g>
     <g id="line2d_129">
      <g>
       <use xlink:href="#m754f5fedc5" x="479.903125" y="110.303497" style="stroke: #000000"/>
      </g>
     </g>
    </g>
    <g id="ytick_16">
     <g id="line2d_130">
      <path d="M 33.503125 104.135664 
L 479.903125 104.135664 
" clip-path="url(#p13a48c0ee2)" style="fill: none; stroke-dasharray: 1,1.65; stroke-dashoffset: 0; stroke: #cccccc; stroke-opacity: 0.5"/>
     </g>
     <g id="line2d_131">
      <g>
       <use xlink:href="#m39750568ce" x="33.503125" y="104.135664" style="stroke: #000000"/>
      </g>
     </g>
     <g id="line2d_132">
      <g>
       <use xlink:href="#m754f5fedc5" x="479.903125" y="104.135664" style="stroke: #000000"/>
      </g>
     </g>
    </g>
    <g id="ytick_17">
     <g id="line2d_133">
      <path d="M 33.503125 97.967832 
L 479.903125 97.967832 
" clip-path="url(#p13a48c0ee2)" style="fill: none; stroke-dasharray: 1,1.65; stroke-dashoffset: 0; stroke: #cccccc; stroke-opacity: 0.5"/>
     </g>
     <g id="line2d_134">
      <g>
       <use xlink:href="#m39750568ce" x="33.503125" y="97.967832" style="stroke: #000000"/>
      </g>
     </g>
     <g id="line2d_135">
      <g>
       <use xlink:href="#m754f5fedc5" x="479.903125" y="97.967832" style="stroke: #000000"/>
      </g>
     </g>
    </g>
    <g id="ytick_18">
     <g id="line2d_136">
      <path d="M 33.503125 85.632168 
L 479.903125 85.632168 
" clip-path="url(#p13a48c0ee2)" style="fill: none; stroke-dasharray: 1,1.65; stroke-dashoffset: 0; stroke: #cccccc; stroke-opacity: 0.5"/>
     </g>
     <g id="line2d_137">
      <g>
       <use xlink:href="#m39750568ce" x="33.503125" y="85.632168" style="stroke: #000000"/>
      </g>
     </g>
     <g id="line2d_138">
      <g>
       <use xlink:href="#m754f5fedc5" x="479.903125" y="85.632168" style="stroke: #000000"/>
      </g>
     </g>
    </g>
    <g id="ytick_19">
     <g id="line2d_139">
      <path d="M 33.503125 79.464336 
L 479.903125 79.464336 
" clip-path="url(#p13a48c0ee2)" style="fill: none; stroke-dasharray: 1,1.65; stroke-dashoffset: 0; stroke: #cccccc; stroke-opacity: 0.5"/>
     </g>
     <g id="line2d_140">
      <g>
       <use xlink:href="#m39750568ce" x="33.503125" y="79.464336" style="stroke: #000000"/>
      </g>
     </g>
     <g id="line2d_141">
      <g>
       <use xlink:href="#m754f5fedc5" x="479.903125" y="79.464336" style="stroke: #000000"/>
      </g>
     </g>
    </g>
    <g id="ytick_20">
     <g id="line2d_142">
      <path d="M 33.503125 73.296503 
L 479.903125 73.296503 
" clip-path="url(#p13a48c0ee2)" style="fill: none; stroke-dasharray: 1,1.65; stroke-dashoffset: 0; stroke: #cccccc; stroke-opacity: 0.5"/>
     </g>
     <g id="line2d_143">
      <g>
       <use xlink:href="#m39750568ce" x="33.503125" y="73.296503" style="stroke: #000000"/>
      </g>
     </g>
     <g id="line2d_144">
      <g>
       <use xlink:href="#m754f5fedc5" x="479.903125" y="73.296503" style="stroke: #000000"/>
      </g>
     </g>
    </g>
    <g id="ytick_21">
     <g id="line2d_145">
      <path d="M 33.503125 67.128671 
L 479.903125 67.128671 
" clip-path="url(#p13a48c0ee2)" style="fill: none; stroke-dasharray: 1,1.65; stroke-dashoffset: 0; stroke: #cccccc; stroke-opacity: 0.5"/>
     </g>
     <g id="line2d_146">
      <g>
       <use xlink:href="#m39750568ce" x="33.503125" y="67.128671" style="stroke: #000000"/>
      </g>
     </g>
     <g id="line2d_147">
      <g>
       <use xlink:href="#m754f5fedc5" x="479.903125" y="67.128671" style="stroke: #000000"/>
      </g>
     </g>
    </g>
    <g id="ytick_22">
     <g id="line2d_148">
      <path d="M 33.503125 54.793007 
L 479.903125 54.793007 
" clip-path="url(#p13a48c0ee2)" style="fill: none; stroke-dasharray: 1,1.65; stroke-dashoffset: 0; stroke: #cccccc; stroke-opacity: 0.5"/>
     </g>
     <g id="line2d_149">
      <g>
       <use xlink:href="#m39750568ce" x="33.503125" y="54.793007" style="stroke: #000000"/>
      </g>
     </g>
     <g id="line2d_150">
      <g>
       <use xlink:href="#m754f5fedc5" x="479.903125" y="54.793007" style="stroke: #000000"/>
      </g>
     </g>
    </g>
    <g id="ytick_23">
     <g id="line2d_151">
      <path d="M 33.503125 48.625175 
L 479.903125 48.625175 
" clip-path="url(#p13a48c0ee2)" style="fill: none; stroke-dasharray: 1,1.65; stroke-dashoffset: 0; stroke: #cccccc; stroke-opacity: 0.5"/>
     </g>
     <g id="line2d_152">
      <g>
       <use xlink:href="#m39750568ce" x="33.503125" y="48.625175" style="stroke: #000000"/>
      </g>
     </g>
     <g id="line2d_153">
      <g>
       <use xlink:href="#m754f5fedc5" x="479.903125" y="48.625175" style="stroke: #000000"/>
      </g>
     </g>
    </g>
    <g id="ytick_24">
     <g id="line2d_154">
      <path d="M 33.503125 42.457343 
L 479.903125 42.457343 
" clip-path="url(#p13a48c0ee2)" style="fill: none; stroke-dasharray: 1,1.65; stroke-dashoffset: 0; stroke: #cccccc; stroke-opacity: 0.5"/>
     </g>
     <g id="line2d_155">
      <g>
       <use xlink:href="#m39750568ce" x="33.503125" y="42.457343" style="stroke: #000000"/>
      </g>
     </g>
     <g id="line2d_156">
      <g>
       <use xlink:href="#m754f5fedc5" x="479.903125" y="42.457343" style="stroke: #000000"/>
      </g>
     </g>
    </g>
    <g id="ytick_25">
     <g id="line2d_157">
      <path d="M 33.503125 36.28951 
L 479.903125 36.28951 
" clip-path="url(#p13a48c0ee2)" style="fill: none; stroke-dasharray: 1,1.65; stroke-dashoffset: 0; stroke: #cccccc; stroke-opacity: 0.5"/>
     </g>
     <g id="line2d_158">
      <g>
       <use xlink:href="#m39750568ce" x="33.503125" y="36.28951" style="stroke: #000000"/>
      </g>
     </g>
     <g id="line2d_159">
      <g>
       <use xlink:href="#m754f5fedc5" x="479.903125" y="36.28951" style="stroke: #000000"/>
      </g>
     </g>
    </g>
    <g id="ytick_26">
     <g id="line2d_160">
      <path d="M 33.503125 23.953846 
L 479.903125 23.953846 
" clip-path="url(#p13a48c0ee2)" style="fill: none; stroke-dasharray: 1,1.65; stroke-dashoffset: 0; stroke: #cccccc; stroke-opacity: 0.5"/>
     </g>
     <g id="line2d_161">
      <g>
       <use xlink:href="#m39750568ce" x="33.503125" y="23.953846" style="stroke: #000000"/>
      </g>
     </g>
     <g id="line2d_162">
      <g>
       <use xlink:href="#m754f5fedc5" x="479.903125" y="23.953846" style="stroke: #000000"/>
      </g>
     </g>
    </g>
    <g id="ytick_27">
     <g id="line2d_163">
      <path d="M 33.503125 17.786014 
L 479.903125 17.786014 
" clip-path="url(#p13a48c0ee2)" style="fill: none; stroke-dasharray: 1,1.65; stroke-dashoffset: 0; stroke: #cccccc; stroke-opacity: 0.5"/>
     </g>
     <g id="line2d_164">
      <g>
       <use xlink:href="#m39750568ce" x="33.503125" y="17.786014" style="stroke: #000000"/>
      </g>
     </g>
     <g id="line2d_165">
      <g>
       <use xlink:href="#m754f5fedc5" x="479.903125" y="17.786014" style="stroke: #000000"/>
      </g>
     </g>
    </g>
    <g id="ytick_28">
     <g id="line2d_166">
      <path d="M 33.503125 11.618182 
L 479.903125 11.618182 
" clip-path="url(#p13a48c0ee2)" style="fill: none; stroke-dasharray: 1,1.65; stroke-dashoffset: 0; stroke: #cccccc; stroke-opacity: 0.5"/>
     </g>
     <g id="line2d_167">
      <g>
       <use xlink:href="#m39750568ce" x="33.503125" y="11.618182" style="stroke: #000000"/>
      </g>
     </g>
     <g id="line2d_168">
      <g>
       <use xlink:href="#m754f5fedc5" x="479.903125" y="11.618182" style="stroke: #000000"/>
      </g>
     </g>
    </g>
    <g id="ytick_29">
     <g id="line2d_169">
      <path d="M 33.503125 5.45035 
L 479.903125 5.45035 
" clip-path="url(#p13a48c0ee2)" style="fill: none; stroke-dasharray: 1,1.65; stroke-dashoffset: 0; stroke: #cccccc; stroke-opacity: 0.5"/>
     </g>
     <g id="line2d_170">
      <g>
       <use xlink:href="#m39750568ce" x="33.503125" y="5.45035" style="stroke: #000000"/>
      </g>
     </g>
     <g id="line2d_171">
      <g>
       <use xlink:href="#m754f5fedc5" x="479.903125" y="5.45035" style="stroke: #000000"/>
      </g>
     </g>
    </g>
    <g id="text_13">
     <!-- passos -->
     <g transform="translate(11.198438 108.911719) rotate(-90) scale(0.1 -0.1)">
      <defs>
       <path id="DejaVuSans-70" d="M 1159 525 
L 1159 -1331 
L 581 -1331 
L 581 3500 
L 1159 3500 
L 1159 2969 
Q 1341 3281 1617 3432 
Q 1894 3584 2278 3584 
Q 2916 3584 3314 3078 
Q 3713 2572 3713 1747 
Q 3713 922 3314 415 
Q 2916 -91 2278 -91 
Q 1894 -91 1617 61 
Q 1341 213 1159 525 
z
M 3116 1747 
Q 3116 2381 2855 2742 
Q 2594 3103 2138 3103 
Q 1681 3103 1420 2742 
Q 1159 2381 1159 1747 
Q 1159 1113 1420 752 
Q 1681 391 2138 391 
Q 2594 391 2855 752 
Q 3116 1113 3116 1747 
z
" transform="scale(0.015625)"/>
      </defs>
      <use xlink:href="#DejaVuSans-70"/>
      <use xlink:href="#DejaVuSans-61" x="63.476562"/>
      <use xlink:href="#DejaVuSans-73" x="124.755859"/>
      <use xlink:href="#DejaVuSans-73" x="176.855469"/>
      <use xlink:href="#DejaVuSans-6f" x="228.955078"/>
      <use xlink:href="#DejaVuSans-73" x="290.136719"/>
     </g>
    </g>
   </g>
   <g id="line2d_172">
    <path d="M 53.794034 48.625175 
L 61.910398 11.618182 
L 70.026761 128.806993 
L 78.143125 159.646154 
L 86.259489 104.135664 
L 94.375852 147.31049 
L 102.492216 122.639161 
L 110.60858 104.135664 
L 118.724943 159.646154 
L 126.841307 60.960839 
L 134.95767 67.128671 
L 143.074034 165.813986 
L 151.190398 171.981818 
L 159.306761 122.639161 
L 167.423125 110.303497 
L 175.539489 141.142657 
L 183.655852 128.806993 
L 191.772216 159.646154 
L 199.88858 153.478322 
L 208.004943 42.457343 
L 216.121307 159.646154 
L 224.23767 141.142657 
L 232.354034 147.31049 
L 240.470398 141.142657 
L 248.586761 48.625175 
L 256.703125 153.478322 
L 264.819489 141.142657 
L 272.935852 85.632168 
L 281.052216 165.813986 
L 289.16858 122.639161 
L 297.284943 104.135664 
L 305.401307 159.646154 
L 313.51767 165.813986 
L 321.634034 134.974825 
L 329.750398 134.974825 
L 337.866761 141.142657 
L 345.983125 122.639161 
L 354.099489 165.813986 
L 362.215852 54.793007 
L 370.332216 165.813986 
L 378.44858 165.813986 
L 386.564943 128.806993 
L 394.681307 153.478322 
L 402.79767 171.981818 
L 410.914034 122.639161 
L 419.030398 128.806993 
L 427.146761 165.813986 
L 435.263125 153.478322 
L 443.379489 60.960839 
L 451.495852 153.478322 
L 459.612216 116.471329 
" clip-path="url(#p13a48c0ee2)" style="fill: none; stroke: #0000ff; stroke-width: 2; stroke-linecap: square"/>
   </g>
   <g id="line2d_173">
    <path d="M 53.794034 147.31049 
L 61.910398 153.478322 
L 70.026761 171.981818 
L 78.143125 159.646154 
L 86.259489 171.981818 
L 94.375852 171.981818 
L 102.492216 171.981818 
L 110.60858 141.142657 
L 118.724943 159.646154 
L 126.841307 171.981818 
L 134.95767 171.981818 
L 143.074034 171.981818 
L 151.190398 171.981818 
L 159.306761 153.478322 
L 167.423125 165.813986 
L 175.539489 171.981818 
L 183.655852 165.813986 
L 191.772216 171.981818 
L 199.88858 171.981818 
L 208.004943 171.981818 
L 216.121307 171.981818 
L 224.23767 165.813986 
L 232.354034 171.981818 
L 240.470398 171.981818 
L 248.586761 79.464336 
L 256.703125 171.981818 
L 264.819489 153.478322 
L 272.935852 165.813986 
L 281.052216 159.646154 
L 289.16858 171.981818 
L 297.284943 147.31049 
L 305.401307 171.981818 
L 313.51767 171.981818 
L 321.634034 134.974825 
L 329.750398 159.646154 
L 337.866761 147.31049 
L 345.983125 134.974825 
L 354.099489 141.142657 
L 362.215852 153.478322 
L 370.332216 153.478322 
L 378.44858 171.981818 
L 386.564943 128.806993 
L 394.681307 165.813986 
L 402.79767 153.478322 
L 410.914034 171.981818 
L 419.030398 147.31049 
L 427.146761 165.813986 
L 435.263125 165.813986 
L 443.379489 147.31049 
L 451.495852 171.981818 
L 459.612216 171.981818 
" clip-path="url(#p13a48c0ee2)" style="fill: none; stroke-dasharray: 7.4,3.2; stroke-dashoffset: 0; stroke: #ff0000; stroke-width: 2"/>
   </g>
   <g id="patch_3">
    <path d="M 33.503125 180 
L 33.503125 3.6 
" style="fill: none; stroke: #000000; stroke-linejoin: miter; stroke-linecap: square"/>
   </g>
   <g id="patch_4">
    <path d="M 479.903125 180 
L 479.903125 3.6 
" style="fill: none; stroke: #000000; stroke-linejoin: miter; stroke-linecap: square"/>
   </g>
   <g id="patch_5">
    <path d="M 33.503125 180 
L 479.903125 180 
" style="fill: none; stroke: #000000; stroke-linejoin: miter; stroke-linecap: square"/>
   </g>
   <g id="patch_6">
    <path d="M 33.503125 3.6 
L 479.903125 3.6 
" style="fill: none; stroke: #000000; stroke-linejoin: miter; stroke-linecap: square"/>
   </g>
   <g id="legend_1">
    <g id="line2d_174">
     <path d="M 380.564062 16.698437 
L 390.564062 16.698437 
L 400.564062 16.698437 
" style="fill: none; stroke: #0000ff; stroke-width: 2; stroke-linecap: square"/>
    </g>
    <g id="text_14">
     <!-- Rodadas  V1 -->
     <g transform="translate(408.564062 20.198437) scale(0.1 -0.1)">
      <defs>
       <path id="DejaVuSans-52" d="M 2841 2188 
Q 3044 2119 3236 1894 
Q 3428 1669 3622 1275 
L 4263 0 
L 3584 0 
L 2988 1197 
Q 2756 1666 2539 1819 
Q 2322 1972 1947 1972 
L 1259 1972 
L 1259 0 
L 628 0 
L 628 4666 
L 2053 4666 
Q 2853 4666 3247 4331 
Q 3641 3997 3641 3322 
Q 3641 2881 3436 2590 
Q 3231 2300 2841 2188 
z
M 1259 4147 
L 1259 2491 
L 2053 2491 
Q 2509 2491 2742 2702 
Q 2975 2913 2975 3322 
Q 2975 3731 2742 3939 
Q 2509 4147 2053 4147 
L 1259 4147 
z
" transform="scale(0.015625)"/>
       <path id="DejaVuSans-64" d="M 2906 2969 
L 2906 4863 
L 3481 4863 
L 3481 0 
L 2906 0 
L 2906 525 
Q 2725 213 2448 61 
Q 2172 -91 1784 -91 
Q 1150 -91 751 415 
Q 353 922 353 1747 
Q 353 2572 751 3078 
Q 1150 3584 1784 3584 
Q 2172 3584 2448 3432 
Q 2725 3281 2906 2969 
z
M 947 1747 
Q 947 1113 1208 752 
Q 1469 391 1925 391 
Q 2381 391 2643 752 
Q 2906 1113 2906 1747 
Q 2906 2381 2643 2742 
Q 2381 3103 1925 3103 
Q 1469 3103 1208 2742 
Q 947 2381 947 1747 
z
" transform="scale(0.015625)"/>
       <path id="DejaVuSans-20" transform="scale(0.015625)"/>
       <path id="DejaVuSans-56" d="M 1831 0 
L 50 4666 
L 709 4666 
L 2188 738 
L 3669 4666 
L 4325 4666 
L 2547 0 
L 1831 0 
z
" transform="scale(0.015625)"/>
      </defs>
      <use xlink:href="#DejaVuSans-52"/>
      <use xlink:href="#DejaVuSans-6f" x="64.982422"/>
      <use xlink:href="#DejaVuSans-64" x="126.164062"/>
      <use xlink:href="#DejaVuSans-61" x="189.640625"/>
      <use xlink:href="#DejaVuSans-64" x="250.919922"/>
      <use xlink:href="#DejaVuSans-61" x="314.396484"/>
      <use xlink:href="#DejaVuSans-73" x="375.675781"/>
      <use xlink:href="#DejaVuSans-20" x="427.775391"/>
      <use xlink:href="#DejaVuSans-20" x="459.5625"/>
      <use xlink:href="#DejaVuSans-56" x="491.349609"/>
      <use xlink:href="#DejaVuSans-31" x="559.757812"/>
     </g>
    </g>
    <g id="line2d_175">
     <path d="M 380.564062 31.376562 
L 390.564062 31.376562 
L 400.564062 31.376562 
" style="fill: none; stroke-dasharray: 7.4,3.2; stroke-dashoffset: 0; stroke: #ff0000; stroke-width: 2"/>
    </g>
    <g id="text_15">
     <!-- Rodadas  V2 -->
     <g transform="translate(408.564062 34.876562) scale(0.1 -0.1)">
      <use xlink:href="#DejaVuSans-52"/>
      <use xlink:href="#DejaVuSans-6f" x="64.982422"/>
      <use xlink:href="#DejaVuSans-64" x="126.164062"/>
      <use xlink:href="#DejaVuSans-61" x="189.640625"/>
      <use xlink:href="#DejaVuSans-64" x="250.919922"/>
      <use xlink:href="#DejaVuSans-61" x="314.396484"/>
      <use xlink:href="#DejaVuSans-73" x="375.675781"/>
      <use xlink:href="#DejaVuSans-20" x="427.775391"/>
      <use xlink:href="#DejaVuSans-20" x="459.5625"/>
      <use xlink:href="#DejaVuSans-56" x="491.349609"/>
      <use xlink:href="#DejaVuSans-32" x="559.757812"/>
     </g>
    </g>
   </g>
  </g>
 </g>
 <defs>
  <clipPath id="p13a48c0ee2">
   <rect x="33.503125" y="3.6" width="446.4" height="176.4"/>
  </clipPath>
 </defs>
</svg>
